<mxfile host="app.diagrams.net" agent="Mozilla/5.0 (X11; Linux x86_64) AppleWebKit/537.36 (KHTML, like Gecko) Chrome/130.0.0.0 Safari/537.36" version="24.8.3">
  <diagram name="Page-1" id="deKUaVZH-JwqvmWe_Xov">
    <mxGraphModel dx="1348" dy="-263" grid="1" gridSize="10" guides="1" tooltips="1" connect="1" arrows="1" fold="1" page="1" pageScale="1" pageWidth="850" pageHeight="1100" math="0" shadow="0">
      <root>
        <mxCell id="0" />
        <mxCell id="1" parent="0" />
        <mxCell id="PKPYmMwV_7xRfYiQWhq6-1" value="1. Propose /&amp;nbsp;&lt;br&gt;Authorize&lt;br&gt;Service" style="edgeStyle=orthogonalEdgeStyle;rounded=0;orthogonalLoop=1;jettySize=auto;html=1;exitX=1;exitY=0.5;exitDx=0;exitDy=0;" edge="1" parent="1" source="PKPYmMwV_7xRfYiQWhq6-2" target="PKPYmMwV_7xRfYiQWhq6-11">
          <mxGeometry relative="1" as="geometry" />
        </mxCell>
        <mxCell id="PKPYmMwV_7xRfYiQWhq6-2" value="&lt;b&gt;Requestor&lt;/b&gt;" style="rounded=1;whiteSpace=wrap;html=1;fillColor=#d5e8d4;strokeColor=#82b366;" vertex="1" parent="1">
          <mxGeometry x="152" y="1340" width="140" height="120" as="geometry" />
        </mxCell>
        <mxCell id="PKPYmMwV_7xRfYiQWhq6-3" value="&lt;b&gt;Potential Performer C&lt;/b&gt;" style="rounded=1;whiteSpace=wrap;html=1;fillColor=#b1ddf0;strokeColor=#10739e;" vertex="1" parent="1">
          <mxGeometry x="495" y="1489" width="140" height="120" as="geometry" />
        </mxCell>
        <mxCell id="PKPYmMwV_7xRfYiQWhq6-4" value="&lt;b&gt;Potential Performer B&lt;/b&gt;" style="rounded=1;whiteSpace=wrap;html=1;fillColor=#b1ddf0;strokeColor=#10739e;" vertex="1" parent="1">
          <mxGeometry x="558" y="1340" width="140" height="120" as="geometry" />
        </mxCell>
        <mxCell id="PKPYmMwV_7xRfYiQWhq6-5" value="3.Requestor and Performer share info as needed (could be query, &lt;br&gt;could be push)" style="edgeStyle=orthogonalEdgeStyle;rounded=0;orthogonalLoop=1;jettySize=auto;html=1;exitX=0;exitY=0.5;exitDx=0;exitDy=0;entryX=0.75;entryY=0;entryDx=0;entryDy=0;dashed=1;startArrow=classic;startFill=1;" edge="1" parent="1" source="PKPYmMwV_7xRfYiQWhq6-6" target="PKPYmMwV_7xRfYiQWhq6-2">
          <mxGeometry x="0.2602" y="-21" relative="1" as="geometry">
            <mxPoint as="offset" />
          </mxGeometry>
        </mxCell>
        <mxCell id="PKPYmMwV_7xRfYiQWhq6-6" value="&lt;b&gt;Potential Performer A&lt;/b&gt;" style="rounded=1;whiteSpace=wrap;html=1;fillColor=#b1ddf0;strokeColor=#10739e;" vertex="1" parent="1">
          <mxGeometry x="486" y="1190" width="140" height="120" as="geometry" />
        </mxCell>
        <mxCell id="PKPYmMwV_7xRfYiQWhq6-7" style="edgeStyle=orthogonalEdgeStyle;rounded=0;orthogonalLoop=1;jettySize=auto;html=1;entryX=0;entryY=0.5;entryDx=0;entryDy=0;dashed=1;" edge="1" parent="1" source="PKPYmMwV_7xRfYiQWhq6-11" target="PKPYmMwV_7xRfYiQWhq6-4">
          <mxGeometry relative="1" as="geometry" />
        </mxCell>
        <mxCell id="PKPYmMwV_7xRfYiQWhq6-8" style="edgeStyle=orthogonalEdgeStyle;rounded=0;orthogonalLoop=1;jettySize=auto;html=1;entryX=0;entryY=0.75;entryDx=0;entryDy=0;dashed=1;" edge="1" parent="1" source="PKPYmMwV_7xRfYiQWhq6-11" target="PKPYmMwV_7xRfYiQWhq6-6">
          <mxGeometry relative="1" as="geometry">
            <Array as="points">
              <mxPoint x="451" y="1400" />
              <mxPoint x="451" y="1280" />
            </Array>
          </mxGeometry>
        </mxCell>
        <mxCell id="PKPYmMwV_7xRfYiQWhq6-9" value="2. Patient Picks Preferred Provider&lt;br&gt;(Obstetrician, Psychologist, etc.)" style="edgeLabel;html=1;align=center;verticalAlign=middle;resizable=0;points=[];" vertex="1" connectable="0" parent="PKPYmMwV_7xRfYiQWhq6-8">
          <mxGeometry x="0.2001" y="-3" relative="1" as="geometry">
            <mxPoint x="-6" y="12" as="offset" />
          </mxGeometry>
        </mxCell>
        <mxCell id="PKPYmMwV_7xRfYiQWhq6-10" style="edgeStyle=orthogonalEdgeStyle;rounded=0;orthogonalLoop=1;jettySize=auto;html=1;entryX=0;entryY=0.25;entryDx=0;entryDy=0;dashed=1;" edge="1" parent="1" source="PKPYmMwV_7xRfYiQWhq6-11" target="PKPYmMwV_7xRfYiQWhq6-3">
          <mxGeometry relative="1" as="geometry">
            <Array as="points">
              <mxPoint x="450" y="1400" />
              <mxPoint x="450" y="1519" />
            </Array>
          </mxGeometry>
        </mxCell>
        <mxCell id="PKPYmMwV_7xRfYiQWhq6-11" value="Patient" style="shape=umlActor;verticalLabelPosition=bottom;verticalAlign=top;html=1;outlineConnect=0;" vertex="1" parent="1">
          <mxGeometry x="379" y="1370" width="30" height="60" as="geometry" />
        </mxCell>
      </root>
    </mxGraphModel>
  </diagram>
</mxfile>
